The Karate Kid (2010)1080p BDRip[Hindi(640kbps)-Tamil(640kbps)-Eng(Dts)]AC3-DGrea8
   

Summary:-


12-year-old Dre Parker could've been the most popular kid in Detroit, but his mother's latest career move has landed him in China. Dre immediately falls for his classmate Mei Ying - and the feeling is mutual - but cultural differences make such a friendship impossible. Even worse, Dre's feelings make an enemy of the class bully, Cheng. In the land of kung fu, Dre knows only a little karate, and Cheng puts "the karate kid" on the floor with ease. With no friends in a strange land, Dre has nowhere to turn but maintenance man Mr. Han, who is secretly a master of kung fu. As Han teaches Dre that kung fu is not about punches and parries, but maturity and calm, Dre realizes that facing down the bullies will be the fight of his life. Written by Columbia Pictures

Cast:-


Jaden Smith.............Dre Parker
Jackie Chan.............Mr. Han
Taraji P. Henson........Sherry Parker
Wenwen Han..............Meiying
Rongguang Yu............Master Li
Zhensu Wu...............Meiying's Dad
Zhiheng Wang............Meiying's Mom
Zhenwei Wang............Cheng
Jared Minns.............Dre's Detroit Friend
Shijia Lü...............Liang
Yi Zhao.................Zhuang
Bo Zhang................Song
Luke Carberry...........Harry
Cameron Hillman.........Mark
Ghye Samuel Brown.......Oz



Video & Audio Info.:-

Director:Harald Zwart
Writers:Christopher Murphey (screenplay), Robert Mark Kamen (story)
Stars:Jackie Chan, Jaden Smith, Taraji P. Henson
Release Date:11 June 2010 (USA)
Filming Locations:Beijing, China
Genres: Action | Drama | Family

Box Office
Opening Weekend: £4,882,306 (UK) (30 July 2010)
Gross: $176,591,618 (USA) (17 September 2010)


Video
ID : 1
Format : AVC
Format settings, CABAC : Yes
Format settings, ReFrames : 4 frames
Muxing mode : Header stripping
Codec ID : V_MPEG4/ISO/AVC
Duration : 2h 20mn
Bit rate : 3 364 Kbps
Width : 1 920 pixels
Height : 800 pixels
Display aspect ratio : 2.40:1
Frame rate mode : Variable
Frame rate : 23.976 fps
Color space : YUV
Chroma subsampling : 4:2:0
Bit depth : 8 bits
Scan type : Progressive
Stream size : 3.29 GiB (60%)


Audio #1
ID : 2
Format : DTS
Format/Info : Digital Theater Systems
Muxing mode : Header stripping
Codec ID : A_DTS
Duration : 2h 20mn
Bit rate mode : Constant
Bit rate : 1 510 Kbps
Channel(s) : 6 channels
Channel positions : Front: L C R, Side: L R, LFE
Sampling rate : 48.0 KHz
Bit depth : 16 bits
Compression mode : Lossy
Stream size : 1.48 GiB (27%)
Title : Dts
Language : English

Audio #2
ID : 3
Format : AC-3
Format/Info : Audio Coding 3
Mode extension : CM (complete main)
Muxing mode : Header stripping
Codec ID : A_AC3
Duration : 2h 20mn
Bit rate mode : Constant
Bit rate : 640 Kbps
Channel(s) : 6 channels
Channel positions : Front: L C R, Side: L R, LFE
Sampling rate : 48.0 KHz
Bit depth : 16 bits
Compression mode : Lossy
Stream size : 641 MiB (11%)
Title : 640kbps BD Audio
Language : Hindi

Audio
ID : 1
Format : AC-3
Format/Info : Audio Coding 3
Mode extension : CM (complete main)
Muxing mode : Header stripping
Codec ID : A_AC3
Duration : 2h 20mn
Bit rate mode : Constant
Bit rate : 640 Kbps
Channel(s) : 6 channels
Channel positions : Front: L C R, Side: L R, LFE
Sampling rate : 48.0 KHz
Bit depth : 16 bits
Compression mode : Lossy
Stream size : 641 MiB (100%)
Title : 640kbps BD Audio
Language : Tamil



Subtitle Languages : English,Hindi,Turkish,Arabic,Bulgarian,Estonian,Greek,
Hebrew,Icelandic,Russian,Tamil,Ukrainian



Screen Shoots:-

         
http://www.shotpix.com/images/06880983772853658054.jpg
 
http://www.shotpix.com/images/18281942621324568822.jpg
 
http://www.shotpix.com/images/51843554584578277561.jpg
 
http://www.shotpix.com/images/53136826781378942932.jpg
 
http://www.shotpix.com/images/78428699380670526900.jpg


Note:-- Check The Torrent


SAMPLE VIDEO IS AVAILABLE

              OR

AUDIO SOURCE ORG.Bluray HINDI-TAMIL AUDIO 640KPS AND TAMIL AUDIO IS SEPARATED


.............................COMMENT MY WORK...................................
								